<?xml version="1.0" encoding="utf-8"?>
<!-- Generator: Adobe Illustrator 23.0.5, SVG Export Plug-In . SVG Version: 6.00 Build 0)  -->
<svg version="1.1" id="Capa_1" xmlns="http://www.w3.org/2000/svg" xmlns:xlink="http://www.w3.org/1999/xlink" x="0px" y="0px"
	 viewBox="0 0 225 52" style="enable-background:new 0 0 225 52;" xml:space="preserve">
<style type="text/css">
	.st0{display:none;fill:#FFFFFF;}
	.st1{fill:#54D28F;}
	.st2{opacity:0.1;enable-background:new    ;}
</style>
<path class="st0" d="M74.4,14.4v21.3c0,4.8-2.2,6.7-6.2,6.7c-1.8,0-3.7-0.3-4.2-0.5l0.3-5.2c0.5,0.2,1.1,0.3,1.8,0.3
	s1.1-0.2,1.1-1.3V14.4H74.4z M93.2,14.4l7.7,22.1H93l-0.9-3.1h-6.3L85,36.4h-7.5l7.7-22.1H93.2z M87.4,27.8h3.3L89,21.9L87.4,27.8z
	 M128.7,14.4l1.3,22.1h-7.1l-0.3-12.6l-2.9,12.6h-6.2l-2.9-12.6l-0.3,12.6h-7.1l1.3-22.1h9.3l2.8,12l2.8-12H128.7z M155.2,25.4
	c0,4.5-1.6,7-3.7,8.6c-2.1,1.6-5,2.4-8.8,2.4h-8.3V14.4h8.3c3.8,0,6.7,0.8,8.8,2.4C153.6,18.4,155.2,20.9,155.2,25.4z M147.9,25.4
	c0-2.2-0.6-3.4-1.3-4c-0.6-0.6-1.8-1.1-3.4-1.1h-1.7v10.1h1.7c1.6,0,2.7-0.5,3.4-1.1C147.2,28.6,147.9,27.6,147.9,25.4z M182.2,25.4
	c0,7.2-5.1,11.4-12,11.4c-6.9,0-12-4.2-12-11.4s5.1-11.4,12-11.4C177.1,14,182.2,18.2,182.2,25.4z M174.9,25.3c0-3-1.8-5.2-4.7-5.2
	c-2.9,0-4.7,2.1-4.7,5.2s1.9,5.2,4.7,5.2C173.1,30.4,174.9,28.3,174.9,25.3z M202.9,28.3L205,34c-0.8,0.8-3,2.8-7.8,2.8
	c-6.6,0-11.8-4-11.8-11.4S190.6,14,197.2,14c5,0,7.4,2.1,7.4,2.1l-1.9,6.1c0,0-2.2-1.9-5-1.9s-5.1,1.6-5.1,5.1c0,3.4,2.5,5,5.1,5
	S202,29.2,202.9,28.3z M224.7,29.2c0,2.3-1.1,4.4-2.9,5.8c-1.8,1.3-4,1.9-6.5,1.9s-5.5-0.7-8.5-2.9l3.2-5.4c2,1.7,4.9,2.4,5.9,2.4
	s1.6-0.3,1.6-0.9c0-0.6-0.8-0.9-1.6-1.2c-0.8-0.2-2.6-0.8-3.2-1c-0.6-0.3-1.9-0.7-3-1.6c-1.1-1-2-2.3-2-4.7s1.2-4.3,2.6-5.3
	c1.3-1.1,3.6-1.9,6.5-1.9s6,1.1,7.9,2.7l-2.8,5.1c-1.7-1.5-4.1-2.1-5.2-2.1c-1.2,0-1.8,0.2-1.8,0.9c0,0.6,1,0.9,1.5,1
	c0.5,0.2,1.9,0.5,2.6,0.8c0.8,0.3,2.6,0.9,3.7,1.9S224.7,26.8,224.7,29.2z"/>
<polygon class="st1" points="0,26 26,52 52,26 26,0 26,26 "/>
<polygon class="st2" points="26,26 26,52 13,26 "/>
<g>
	<path d="M111.9,13.2c0,0.1,0,0.3-0.1,0.4c-0.1,0.1-0.2,0.2-0.3,0.2c-0.9,0.1-1.7,0.4-2.3,0.9c-0.6,0.5-1.2,1.5-1.8,3l-9.7,21.8
		c-0.1,0.2-0.2,0.3-0.5,0.3c-0.2,0-0.4-0.1-0.5-0.3l-5.4-11.3l-6.2,11.3c-0.1,0.2-0.3,0.3-0.5,0.3c-0.3,0-0.5-0.1-0.6-0.3l-9.5-21.8
		c-0.6-1.4-1.2-2.3-1.9-2.9s-1.6-0.9-2.8-1c-0.1,0-0.2-0.1-0.3-0.2c-0.1-0.1-0.1-0.2-0.1-0.4c0-0.3,0.1-0.5,0.3-0.5
		c0.8,0,1.7,0,2.7,0.1C73,13,73.8,13,74.6,13c0.8,0,1.7,0,2.7-0.1c1.1-0.1,2.1-0.1,2.9-0.1c0.2,0,0.3,0.2,0.3,0.5
		c0,0.3-0.1,0.5-0.2,0.5c-0.8,0.1-1.5,0.3-2,0.6c-0.5,0.4-0.7,0.9-0.7,1.5c0,0.3,0.1,0.7,0.3,1.1l7.8,17.8l4.6-8.5l-4.2-8.7
		c-0.7-1.6-1.4-2.6-1.8-3c-0.5-0.5-1.2-0.7-2.2-0.8c-0.1,0-0.2-0.1-0.3-0.2c-0.1-0.1-0.1-0.2-0.1-0.4c0-0.3,0.1-0.5,0.3-0.5
		c0.8,0,1.6,0,2.3,0.1C85,13,85.7,13,86.5,13c0.8,0,1.6,0,2.4-0.1c0.9-0.1,1.7-0.1,2.6-0.1c0.2,0,0.3,0.2,0.3,0.5
		c0,0.3-0.1,0.5-0.2,0.5c-1.7,0.1-2.5,0.6-2.5,1.5c0,0.4,0.2,1,0.6,1.8l2.8,5.6l2.7-5.1c0.4-0.7,0.6-1.3,0.6-1.8
		c0-1.2-0.8-1.8-2.5-1.9c-0.2,0-0.2-0.2-0.2-0.5c0-0.1,0-0.2,0.1-0.4c0.1-0.1,0.2-0.2,0.2-0.2c0.6,0,1.4,0,2.2,0.1
		c0.8,0.1,1.5,0.1,2.1,0.1c0.4,0,1,0,1.7-0.1c1-0.1,1.8-0.1,2.4-0.1c0.2,0,0.2,0.1,0.2,0.4c0,0.4-0.1,0.6-0.4,0.6
		c-1,0.1-1.8,0.4-2.4,0.8c-0.6,0.4-1.4,1.5-2.3,3l-3.6,6.8l4.9,10.1l7.3-17c0.3-0.6,0.4-1.2,0.4-1.7c0-1.2-0.8-1.9-2.5-2
		c-0.2,0-0.2-0.2-0.2-0.5c0-0.3,0.1-0.5,0.3-0.5c0.6,0,1.4,0,2.2,0.1c0.8,0.1,1.4,0.1,2,0.1c0.6,0,1.2,0,1.9-0.1
		c0.8-0.1,1.4-0.1,2.1-0.1C111.8,12.8,111.9,12.9,111.9,13.2z"/>
	<path d="M118.6,38.7c0,0.4-0.1,0.5-0.3,0.5c-0.5,0-1.2,0-2-0.1c-0.9-0.1-1.7-0.1-2.3-0.1c-0.6,0-1.4,0-2.3,0.1
		c-0.8,0.1-1.5,0.1-2,0.1c-0.2,0-0.3-0.2-0.3-0.5c0-0.3,0.1-0.5,0.3-0.5c1.1-0.1,1.8-0.4,2.1-0.8c0.3-0.4,0.5-1.2,0.5-2.4v-7
		c0-1-0.1-1.7-0.4-2s-0.8-0.5-1.7-0.6c-0.2,0-0.3-0.2-0.3-0.5c0-0.3,0.1-0.5,0.3-0.5c1.3-0.3,2.4-0.7,3.3-1.1c0.8-0.4,1.4-0.7,1.6-1
		c0.1-0.2,0.3-0.2,0.4-0.2c0.4,0,0.5,0.1,0.5,0.3c-0.2,2.8-0.3,5-0.3,6.6v6c0,1.2,0.2,2.1,0.5,2.4c0.3,0.4,1,0.6,2.1,0.8
		C118.5,38.2,118.6,38.4,118.6,38.7z M115.9,15.7c0,0.5-0.2,1-0.6,1.4c-0.4,0.4-0.9,0.6-1.4,0.6s-1-0.2-1.4-0.6
		c-0.4-0.4-0.6-0.9-0.6-1.4c0-0.6,0.2-1,0.6-1.4c0.4-0.4,0.8-0.6,1.4-0.6c0.5,0,1,0.2,1.4,0.6C115.7,14.7,115.9,15.2,115.9,15.7z"/>
	<path d="M139.9,38.7c0,0.4-0.1,0.5-0.3,0.5c-0.5,0-1.2,0-2-0.1c-0.9-0.1-1.6-0.1-2.2-0.1c-0.6,0-1.4,0-2.3,0.1
		c-0.9,0.1-1.6,0.1-2.1,0.1c-0.2,0-0.3-0.2-0.3-0.5c0-0.3,0.1-0.5,0.3-0.5c0.3,0,0.6-0.1,0.7-0.2c0.1-0.1,0.2-0.3,0.2-0.5
		c0-0.4-0.6-1.2-1.8-2.5l-3-3.4c-0.3-0.3-0.6-0.4-1-0.4V35c0,1.1,0.1,1.9,0.4,2.4s0.8,0.7,1.5,0.8c0.2,0,0.3,0.2,0.3,0.5
		c0,0.4-0.1,0.5-0.3,0.5c-0.5,0-1.3,0-2.1-0.1c-0.8-0.1-1.5-0.1-2-0.1c-0.5,0-1.2,0-2,0.1c-0.7,0.1-1.3,0.1-1.8,0.1
		c-0.2,0-0.3-0.2-0.3-0.5c0-0.3,0.1-0.5,0.3-0.5c1.1-0.1,1.8-0.4,2.1-0.8s0.5-1.2,0.5-2.5V17.3c0-1-0.1-1.7-0.4-2s-0.8-0.5-1.7-0.6
		c-0.2,0-0.3-0.2-0.3-0.5c0-0.3,0.1-0.5,0.3-0.5c2.2-0.5,3.8-1.2,4.8-2c0.2-0.2,0.3-0.2,0.5-0.2c0.4,0,0.5,0.1,0.5,0.3
		c-0.2,2.1-0.3,4.3-0.3,6.6v11.8c0.5,0,0.8-0.1,1.1-0.4l2.8-2.7c0.1-0.1,0.2-0.2,0.4-0.4c1.1-1,1.6-1.7,1.6-2.1
		c0-0.3-0.5-0.6-1.5-0.7c-0.2,0-0.3-0.2-0.3-0.5c0-0.3,0.1-0.5,0.3-0.5c0.5,0,1.2,0,2,0.1c0.7,0.1,1.4,0.1,1.9,0.1
		c0.4,0,0.8,0,1.4-0.1c0.7-0.1,1.3-0.1,1.9-0.1c0.2,0,0.3,0.2,0.3,0.5c0,0.3-0.1,0.5-0.3,0.5c-0.9,0.1-1.7,0.3-2.4,0.7
		s-1.6,1-2.8,2.1l-3.3,2.9l5,5.5c1.1,1.2,1.9,1.9,2.7,2.4c0.7,0.4,1.7,0.7,2.8,0.8C139.8,38.2,139.9,38.4,139.9,38.7z"/>
	<path d="M150,38.7c0,0.4-0.1,0.5-0.3,0.5c-0.5,0-1.2,0-2-0.1c-0.9-0.1-1.7-0.1-2.3-0.1c-0.6,0-1.4,0-2.3,0.1
		c-0.8,0.1-1.5,0.1-2,0.1c-0.2,0-0.3-0.2-0.3-0.5c0-0.3,0.1-0.5,0.3-0.5c1.1-0.1,1.8-0.4,2.1-0.8c0.3-0.4,0.5-1.2,0.5-2.4v-7
		c0-1-0.1-1.7-0.4-2s-0.8-0.5-1.7-0.6c-0.2,0-0.3-0.2-0.3-0.5c0-0.3,0.1-0.5,0.3-0.5c1.3-0.3,2.4-0.7,3.3-1.1c0.8-0.4,1.4-0.7,1.6-1
		c0.1-0.2,0.3-0.2,0.4-0.2c0.4,0,0.5,0.1,0.5,0.3c-0.2,2.8-0.3,5-0.3,6.6v6c0,1.2,0.2,2.1,0.5,2.4c0.3,0.4,1,0.6,2.1,0.8
		C149.9,38.2,150,38.4,150,38.7z M147.3,15.7c0,0.5-0.2,1-0.6,1.4c-0.4,0.4-0.9,0.6-1.4,0.6s-1-0.2-1.4-0.6
		c-0.4-0.4-0.6-0.9-0.6-1.4c0-0.6,0.2-1,0.6-1.4c0.4-0.4,0.8-0.6,1.4-0.6c0.5,0,1,0.2,1.4,0.6C147.1,14.7,147.3,15.2,147.3,15.7z"/>
	<path d="M168.4,31.6c0,2.5-0.7,4.5-2.2,6s-3.5,2.2-6.1,2.2c-1.1,0-2.5-0.2-4.1-0.6c-1.4-0.4-2.6-0.6-3.5-0.6
		c-0.1-2.2-0.2-4.3-0.5-6.5c0-0.2,0.2-0.3,0.6-0.3c0.3,0,0.4,0.1,0.5,0.3c0.7,2.4,1.6,4,2.6,5c1.1,1,2.6,1.4,4.5,1.4
		c1.5,0,2.7-0.4,3.6-1.3c0.8-0.9,1.3-2.1,1.3-3.7c0-1-0.4-2-1.1-2.9c-0.7-0.9-2.3-2-4.7-3.4c-2.7-1.6-4.5-2.9-5.4-4
		s-1.3-2.3-1.3-3.7c0-2.1,0.8-3.8,2.3-5.2c1.5-1.4,3.5-2.1,5.8-2.1c0.9,0,1.9,0.1,3.1,0.4c1.1,0.2,2,0.3,2.8,0.3
		c0.2,2.2,0.4,4.2,0.6,5.9c0,0.2-0.2,0.3-0.5,0.3c-0.4,0-0.6-0.1-0.6-0.3c-0.4-1.9-1.1-3.3-1.9-4.1c-0.9-0.8-2-1.3-3.5-1.3
		c-1.4,0-2.6,0.4-3.4,1.3c-0.8,0.8-1.3,2-1.3,3.4c0,0.9,0.4,1.8,1.1,2.6c0.7,0.8,2.2,1.9,4.6,3.3c2.8,1.6,4.6,3,5.5,4.1
		C168,29.1,168.4,30.3,168.4,31.6z"/>
	<path d="M194.1,33c-1,2.2-1.9,4.3-2.5,6.3c-4.8-0.2-8.2-0.2-10.2-0.2c-2,0-5.4,0.1-10.2,0.2c-0.2,0-0.3-0.2-0.3-0.5
		c0-0.3,0.1-0.5,0.3-0.5c1.1-0.1,1.9-0.3,2.4-0.5c0.6-0.2,0.9-0.5,1.2-0.8c0.2-0.4,0.3-1,0.3-1.9V17.1c0-0.9-0.1-1.5-0.3-1.9
		s-0.6-0.6-1.1-0.9c-0.6-0.2-1.4-0.4-2.5-0.5c-0.2,0-0.3-0.2-0.3-0.5c0-0.3,0.1-0.5,0.3-0.5c3.2,0.2,6.5,0.2,9.8,0.2
		c3.4,0,6.6-0.1,9.8-0.2c0.3,2,0.7,3.9,1.3,5.8c0,0.3-0.2,0.4-0.7,0.4c-0.2,0-0.3-0.1-0.4-0.3c-0.9-3-2.9-4.5-6-4.5h-3.8
		c-1.5,0-2.2,0.8-2.2,2.3V25h4.8c1.3,0,2.1-0.3,2.6-0.9s0.8-1.6,0.9-3.1c0-0.2,0.2-0.3,0.5-0.3c0.3,0,0.5,0.1,0.5,0.3
		c0,0.6,0,1.4-0.1,2.4c-0.1,0.9-0.1,1.7-0.1,2.3c0,0.6,0,1.4,0.1,2.3c0.1,1,0.1,1.8,0.1,2.4c0,0.2-0.2,0.3-0.5,0.3
		c-0.3,0-0.5-0.1-0.5-0.3c-0.2-1.5-0.5-2.6-1-3.2c-0.5-0.6-1.3-0.9-2.5-0.9H179v9.3c0,1.5,0.7,2.2,2.2,2.2h4.1c1.5,0,3-0.5,4.5-1.5
		c1.5-1,2.6-2.2,3.3-3.7c0.1-0.1,0.2-0.2,0.3-0.2c0.2,0,0.3,0,0.5,0.1S194.1,32.8,194.1,33z"/>
	<path d="M224.2,26.2c0,4-1.3,7.3-3.9,9.9c-2.6,2.6-6,3.8-10.1,3.8c-4.2,0-7.5-1.3-10.1-3.8c-2.6-2.6-3.9-5.8-3.9-9.9
		c0-4,1.3-7.4,3.9-10c2.6-2.6,6-3.9,10.1-3.9c4.1,0,7.5,1.3,10.1,3.9C222.9,18.8,224.2,22.1,224.2,26.2z M220,26.2
		c0-3.7-0.9-6.8-2.7-9.2s-4.2-3.6-7.1-3.6c-3,0-5.3,1.2-7.1,3.6c-1.8,2.4-2.7,5.4-2.7,9.2c0,3.7,0.9,6.7,2.7,9
		c1.8,2.3,4.2,3.4,7.1,3.4c3,0,5.3-1.1,7.1-3.4C219.1,32.9,220,29.9,220,26.2z"/>
</g>
</svg>
