<?xml version="1.0" encoding="utf-8"?>
<!-- Generator: Adobe Illustrator 23.0.5, SVG Export Plug-In . SVG Version: 6.00 Build 0)  -->
<svg version="1.1" id="Capa_1" xmlns="http://www.w3.org/2000/svg" xmlns:xlink="http://www.w3.org/1999/xlink" x="0px" y="0px"
	 viewBox="0 0 225 52" style="enable-background:new 0 0 225 52;" xml:space="preserve">
<style type="text/css">
	.st0{display:none;fill:#FFFFFF;}
	.st1{fill:#54D28F;}
	.st2{opacity:0.1;enable-background:new    ;}
	.st3{fill:#FFFFFF;}
	.st4{font-family:'HoeflerText';}
	.st5{font-size:38px;}
</style>
<path class="st0" d="M74.4,14.4v21.3c0,4.8-2.2,6.7-6.2,6.7c-1.8,0-3.7-0.3-4.2-0.5l0.3-5.2c0.5,0.2,1.1,0.3,1.8,0.3
	s1.1-0.2,1.1-1.3V14.4H74.4z M93.2,14.4l7.7,22.1H93l-0.9-3.1h-6.3L85,36.4h-7.5l7.7-22.1H93.2z M87.4,27.8h3.3L89,21.9L87.4,27.8z
	 M128.7,14.4l1.3,22.1h-7.1l-0.3-12.6l-2.9,12.6h-6.2l-2.9-12.6l-0.3,12.6h-7.1l1.3-22.1h9.3l2.8,12l2.8-12H128.7z M155.2,25.4
	c0,4.5-1.6,7-3.7,8.6c-2.1,1.6-5,2.4-8.8,2.4h-8.3V14.4h8.3c3.8,0,6.7,0.8,8.8,2.4C153.6,18.4,155.2,20.9,155.2,25.4z M147.9,25.4
	c0-2.2-0.6-3.4-1.3-4c-0.6-0.6-1.8-1.1-3.4-1.1h-1.7v10.1h1.7c1.6,0,2.7-0.5,3.4-1.1C147.2,28.6,147.9,27.6,147.9,25.4z M182.2,25.4
	c0,7.2-5.1,11.4-12,11.4c-6.9,0-12-4.2-12-11.4s5.1-11.4,12-11.4C177.1,14,182.2,18.2,182.2,25.4z M174.9,25.3c0-3-1.8-5.2-4.7-5.2
	c-2.9,0-4.7,2.1-4.7,5.2s1.9,5.2,4.7,5.2C173.1,30.4,174.9,28.3,174.9,25.3z M202.9,28.3L205,34c-0.8,0.8-3,2.8-7.8,2.8
	c-6.6,0-11.8-4-11.8-11.4S190.6,14,197.2,14c5,0,7.4,2.1,7.4,2.1l-1.9,6.1c0,0-2.2-1.9-5-1.9s-5.1,1.6-5.1,5.1c0,3.4,2.5,5,5.1,5
	S202,29.2,202.9,28.3z M224.7,29.2c0,2.3-1.1,4.4-2.9,5.8c-1.8,1.3-4,1.9-6.5,1.9s-5.5-0.7-8.5-2.9l3.2-5.4c2,1.7,4.9,2.4,5.9,2.4
	s1.6-0.3,1.6-0.9c0-0.6-0.8-0.9-1.6-1.2c-0.8-0.2-2.6-0.8-3.2-1c-0.6-0.3-1.9-0.7-3-1.6c-1.1-1-2-2.3-2-4.7s1.2-4.3,2.6-5.3
	c1.3-1.1,3.6-1.9,6.5-1.9s6,1.1,7.9,2.7l-2.8,5.1c-1.7-1.5-4.1-2.1-5.2-2.1c-1.2,0-1.8,0.2-1.8,0.9c0,0.6,1,0.9,1.5,1
	c0.5,0.2,1.9,0.5,2.6,0.8c0.8,0.3,2.6,0.9,3.7,1.9S224.7,26.8,224.7,29.2z"/>
<polygon class="st1" points="0,26 26,52 52,26 26,0 26,26 "/>
<polygon class="st2" points="26,26 26,52 13,26 "/>
<text transform="matrix(1 0 0 1 69.2 38.9996)" class="st3 st4 st5">WikiSEO</text>
</svg>
